<?xml version="1.0" encoding="utf-8"?>
<!-- Generator: Adobe Illustrator 15.1.0, SVG Export Plug-In . SVG Version: 6.00 Build 0)  -->
<!DOCTYPE svg PUBLIC "-//W3C//DTD SVG 1.1//EN" "http://www.w3.org/Graphics/SVG/1.1/DTD/svg11.dtd">
<svg version="1.1" id="Layer_1" xmlns="http://www.w3.org/2000/svg" xmlns:xlink="http://www.w3.org/1999/xlink" x="0px" y="0px"
	 width="100px" height="86px" viewBox="0 0 100 86" enable-background="new 0 0 100 86" xml:space="preserve">
<path d="M100,24c0-5.523-4.478-10-10-10c-5.523,0-10,4.477-10,10c0,2.452,0.885,4.695,2.35,6.434L72.001,42l-5.067-22.439
	C71.024,18.307,74,14.502,74,10c0-5.523-4.478-10-10-10c-5.523,0-10,4.477-10,10c0,3.582,1.889,6.714,4.718,8.48L50,40.999
	l-8.717-22.519C44.111,16.713,46,13.581,46,10c0-5.523-4.478-10-10-10c-5.523,0-10,4.477-10,10c0,4.502,2.976,8.308,7.066,9.561
	L28,42L17.65,30.433C19.115,28.694,20,26.452,20,24c0-5.523-4.478-10-10-10C4.477,14,0,18.477,0,24c0,5.376,4.244,9.748,9.564,9.978
	L21.001,66H79l11.438-32.022C95.756,33.748,100,29.376,100,24z"/>
<rect x="21.001" y="72" width="57.999" height="14"/>
</svg>
