<svg xmlns="http://www.w3.org/2000/svg" xmlns:xlink="http://www.w3.org/1999/xlink" version="1.1" id="Livello_1" x="0px" y="0px" width="84.7457627119px" height="100px" viewBox="0 0 200 236" enable-background="new 0 0 200 236" xml:space="preserve">
<g>
	<path d="M42.107,169.912c-0.004,0.23-0.036,0.451-0.036,0.683c0,32.166,26.08,58.24,58.242,58.24   c32.167,0,58.242-26.074,58.242-58.24c0-0.231-0.031-0.452-0.031-0.683H42.107z"/>
	<path d="M167.634,130.681h-48.973c-2.312,7.996-9.607,13.878-18.348,13.878c-8.744,0-16.035-5.882-18.352-13.878H32.479   l-17.986,31.349h171.64L167.634,130.681z"/>
	<path d="M166.811,77.75c-0.498-32.584-24.438-59.415-55.701-64.498V6.835H89.518v6.446C58.339,18.43,34.487,45.227,33.99,77.75   h-0.225v40.084h48.908c2.927-6.847,9.72-11.649,17.641-11.649c7.917,0,14.711,4.802,17.641,11.649h48.909V77.75H166.811z"/>
</g>
</svg>